#tb 0: 1/25
#media_type 0: video
#codec_id 0: rawvideo
#dimensions 0: 720x576
#sar 0: 16/15
0,          9,          9,        1,   622080, 0x6331caee
0,         10,         10,        1,   622080, 0xa459e690
0,         11,         11,        1,   622080, 0x6429c648
0,         12,         12,        1,   622080, 0xa49891ca
0,         13,         13,        1,   622080, 0x2a887404
0,         14,         14,        1,   622080, 0xe8d49705
0,         15,         15,        1,   622080, 0x1b627835
0,         16,         16,        1,   622080, 0x686858fd
0,         17,         17,        1,   622080, 0x2675174f
0,         18,         18,        1,   622080, 0x78470e7f
0,         19,         19,        1,   622080, 0xffb366ec
0,         20,         20,        1,   622080, 0xd575da72
0,         21,         21,        1,   622080, 0x5fb297f7
0,         22,         22,        1,   622080, 0xbac77ca0
0,         23,         23,        1,   622080, 0x3276ed72
0,         24,         24,        1,   622080, 0x264092b2
0,         25,         25,        1,   622080, 0x20ba1094
0,         26,         26,        1,   622080, 0x76cc3139
0,         27,         27,        1,   622080, 0x469a4902
0,         28,         28,        1,   622080, 0x0ed7b8f5
0,         29,         29,        1,   622080, 0xdc51aeac
0,         30,         30,        1,   622080, 0xee06aa36
0,         31,         31,        1,   622080, 0x7372405f
0,         32,         32,        1,   622080, 0x9e0ee776
0,         33,         33,        1,   622080, 0x39e6d8c9
0,         34,         34,        1,   622080, 0x51d9ac9a
0,         35,         35,        1,   622080, 0x2b63441d
0,         36,         36,        1,   622080, 0x58afbd5e
0,         37,         37,        1,   622080, 0xb972f716
0,         38,         38,        1,   622080, 0x6a6df129
